{"title":"Earth To Echo 2014 READNFO CAM XVID MP3","uid":11111978,"size":1536862766,"categoryP":"video","categoryS":"other","magnet":"?xt=urn:btih:6338fc1b7ab538ec2bb753098c8c9683ee4f5986&amp;dn=Earth+To+Echo+2014+READNFO+CAM+XVID+MP3&amp;tr=udp%3A%2F%2Ftracker.openbittorrent.com%3A80&amp;tr=udp%3A%2F%2Fopen.demonii.com%3A1337&amp;tr=udp%3A%2F%2Ftracker.coppersurfer.tk%3A6969&amp;tr=udp%3A%2F%2Fexodus.desync.com%3A6969","seeders":0,"leechers":2,"uploader":"jacks66","files":-1,"time":1411811345,"description":"Earth To Echo 2014 READNFO CAM XVID MP3\n\nlot:\nAfter receiving a bizarre series of encrypted messages, a group of kids embark on an adventure with an alien who needs their help\n\nSource:\nA Friend At Local Car Boot\n\nREADNFO Reason:\nThis Source Has NO Site Watermarks Floating Round Screen Has A Logo That Stays In Corner But Its NOT A Site Logo. Quality Is Pretty Good Sound Is Too. Does Have Hard Coded Spanish Subs But after A Few Mins Of Watching Film You Barely Notice Them. Enjoy For Now\n\nInfo:\nFormat: AVI\nFormat/Info: Audio Video Interleave\nFormat profile: OpenDML\nFile size: 1.40 GiB\nDuration: 1h 22mn\nOverall bit rate: 2 432 Kbps\nWriting application: Lavf52.84.0\n\nVideo\nID: 0\nFormat: MPEG-4 Visual\nFormat profile: Simple@L1\nFormat settings, BVOP: No\nFormat settings, QPel: No\nFormat settings, GMC: No warppoints\nFormat settings, Matrix: Default (H.263)\nCodec ID: DIVX\nCodec ID/Info: Project Mayo\nCodec ID/Hint: DivX 4\nDuration: 1h 22mn\nBit rate: 2 290 Kbps\nWidth: 720 pixels\nHeight: 414 pixels\nDisplay aspect ratio: 1.739\nFrame rate: 23.976 fps\nColor space: YUV\nChroma subsampling: 4:2:0\nBit depth: 8 bits\nScan type: Progressive\nCompression mode: Lossy\nBits/(Pixel*Frame): 0.320\nStream size: 1.32 GiB (94%)\nWriting library: Lavc52.97.0\n\nAudio\nID: 1\nFormat: MPEG Audio\nFormat version: Version 1\nFormat profile: Layer 3\nMode: Joint stereo\nMode extension: MS Stereo\nCodec ID: 55\nCodec ID/Hint: MP3\nDuration: 1h 22mn\nBit rate mode: Constant\nBit rate: 128 Kbps\nChannel(s): 2 channels\nSampling rate: 44.1 KHz\nCompression mode: Lossy\nStream size: 75.5 MiB (5%)\nAlignment: Aligned on interleaves\nInterleave, duration: 26 ms (0.63 video frame)\nInterleave, preload duration: 26 ms\n\nScreens: \n &lt;a href=&quot;\nhttp://imgsleek.com/img-54266af341284.html&quot; rel=&quot;nofollow&quot; target=&quot;_NEW&quot;&gt;\nhttp://imgsleek.com/img-54266af341284.html&lt;/a&gt;\n &lt;a href=&quot;\nhttp://imgsleek.com/img-54266af34b362.html&quot; rel=&quot;nofollow&quot; target=&quot;_NEW&quot;&gt;\nhttp://imgsleek.com/img-54266af34b362.html&lt;/a&gt;\n &lt;a href=&quot;\nhttp://imgsleek.com/img-54266af351e71.html&quot; rel=&quot;nofollow&quot; target=&quot;_NEW&quot;&gt;\nhttp://imgsleek.com/img-54266af351e71.html&lt;/a&gt;\n","torrent":{"xt":"urn:btih:6338fc1b7ab538ec2bb753098c8c9683ee4f5986","amp;dn":"Earth+To+Echo+2014+READNFO+CAM+XVID+MP3","amp;tr":["udp%3A%2F%2Ftracker.openbittorrent.com%3A80","udp%3A%2F%2Fopen.demonii.com%3A1337","udp%3A%2F%2Ftracker.coppersurfer.tk%3A6969","udp%3A%2F%2Fexodus.desync.com%3A6969"],"infoHash":"6338fc1b7ab538ec2bb753098c8c9683ee4f5986","infoHashBuffer":{"type":"Buffer","data":[99,56,252,27,122,181,56,236,43,183,83,9,140,140,150,131,238,79,89,134]},"announce":[],"urlList":[]}}